<mxfile host="app.diagrams.net" agent="Mozilla/5.0 (X11; Linux x86_64) AppleWebKit/537.36 (KHTML, like Gecko) Chrome/139.0.0.0 Safari/537.36" version="28.1.0">
  <diagram id="page1" name="UC - Utenti">
    <mxGraphModel dx="906226" dy="566291" grid="1" gridSize="10" guides="1" tooltips="1" connect="1" arrows="1" fold="1" page="1" pageScale="1" pageWidth="2400" pageHeight="1500" background="#ffffff" math="0" shadow="0">
      <root>
        <mxCell id="0" />
        <mxCell id="1" parent="0" />
        <mxCell id="edge1" style="endArrow=none;strokeColor=#424242;" parent="1" source="actor1" target="uc1" edge="1" />
        <mxCell id="edge2" style="endArrow=none;strokeColor=#424242;" parent="1" source="actor1" target="uc2" edge="1" />
        <mxCell id="edge3" style="endArrow=none;strokeColor=#424242;" parent="1" source="actor1" target="uc3" edge="1" />
        <mxCell id="edge4" style="endArrow=none;strokeColor=#424242;" parent="1" source="actor1" target="uc4" edge="1" />
        <mxCell id="edge5" style="endArrow=none;strokeColor=#424242;" parent="1" source="actor2" target="uc5" edge="1" />
        <mxCell id="edge6" style="endArrow=none;strokeColor=#424242;" parent="1" source="actor2" target="uc6" edge="1" />
        <mxCell id="edge7" style="endArrow=none;strokeColor=#424242;" parent="1" source="actor2" target="uc7" edge="1" />
        <mxCell id="edge8" style="endArrow=none;strokeColor=#424242;" parent="1" source="actor2" target="uc1" edge="1" />
        <mxCell id="edge9" style="endArrow=none;strokeColor=#424242;" parent="1" source="actor2" target="uc2" edge="1" />
        <mxCell id="edge10" style="endArrow=none;strokeColor=#424242;" parent="1" source="actor2" target="uc3" edge="1" />
        <mxCell id="edge11" style="endArrow=none;strokeColor=#424242;" parent="1" source="actor2" target="uc4" edge="1" />
        <mxCell id="edge12" style="endArrow=none;strokeColor=#424242;" parent="1" source="actor2" target="uc8" edge="1" />
        <mxCell id="HIcIBQzLs1-KXI0CTvIw-76" value="Visitatore" style="shape=umlActor;verticalLabelPosition=bottom;verticalAlign=top;" vertex="1" parent="1">
          <mxGeometry x="-647230" y="-404380" width="60" height="120" as="geometry" />
        </mxCell>
        <mxCell id="HIcIBQzLs1-KXI0CTvIw-77" value="Utente registrato" style="shape=umlActor;verticalLabelPosition=bottom;verticalAlign=top;" vertex="1" parent="1">
          <mxGeometry x="-646430" y="-404360" width="60" height="120" as="geometry" />
        </mxCell>
        <mxCell id="HIcIBQzLs1-KXI0CTvIw-78" value="" style="edgeStyle=orthogonalEdgeStyle;rounded=0;orthogonalLoop=1;jettySize=auto;html=1;dashed=1;endArrow=block;endFill=0;strokeWidth=3;entryX=1;entryY=0.5;entryDx=0;entryDy=0;" edge="1" parent="1" source="HIcIBQzLs1-KXI0CTvIw-80" target="HIcIBQzLs1-KXI0CTvIw-85">
          <mxGeometry relative="1" as="geometry" />
        </mxCell>
        <mxCell id="HIcIBQzLs1-KXI0CTvIw-79" value="&lt;font style=&quot;font-size: 13px;&quot;&gt;&lt;b&gt;«include»&lt;/b&gt;&lt;/font&gt;" style="edgeLabel;html=1;align=center;verticalAlign=middle;resizable=0;points=[];" vertex="1" connectable="0" parent="HIcIBQzLs1-KXI0CTvIw-78">
          <mxGeometry x="-0.097" y="-3" relative="1" as="geometry">
            <mxPoint x="-31" y="-17" as="offset" />
          </mxGeometry>
        </mxCell>
        <mxCell id="HIcIBQzLs1-KXI0CTvIw-80" value="Ricerca prezzo minimo" style="shape=ellipse;whiteSpace=wrap;html=1;fillColor=#e3f2fd;strokeColor=#1e88e5;" vertex="1" parent="1">
          <mxGeometry x="-646750" y="-404380" width="220" height="60" as="geometry" />
        </mxCell>
        <mxCell id="HIcIBQzLs1-KXI0CTvIw-81" value="" style="edgeStyle=orthogonalEdgeStyle;rounded=0;orthogonalLoop=1;jettySize=auto;html=1;strokeWidth=2;dashed=1;endArrow=block;endFill=0;" edge="1" parent="1" source="HIcIBQzLs1-KXI0CTvIw-83" target="HIcIBQzLs1-KXI0CTvIw-84">
          <mxGeometry relative="1" as="geometry" />
        </mxCell>
        <mxCell id="HIcIBQzLs1-KXI0CTvIw-82" value="&lt;font style=&quot;font-size: 13px;&quot;&gt;&lt;b&gt;&amp;lt;&amp;lt;extend&amp;gt;&amp;gt;&lt;/b&gt;&lt;/font&gt;" style="edgeLabel;html=1;align=center;verticalAlign=middle;resizable=0;points=[];" vertex="1" connectable="0" parent="HIcIBQzLs1-KXI0CTvIw-81">
          <mxGeometry x="-0.1833" y="2" relative="1" as="geometry">
            <mxPoint x="-42" y="4" as="offset" />
          </mxGeometry>
        </mxCell>
        <mxCell id="HIcIBQzLs1-KXI0CTvIw-83" value="Elenco punti vendita" style="shape=ellipse;whiteSpace=wrap;html=1;fillColor=#e3f2fd;strokeColor=#1e88e5;" vertex="1" parent="1">
          <mxGeometry x="-646920" y="-404580" width="220" height="60" as="geometry" />
        </mxCell>
        <mxCell id="HIcIBQzLs1-KXI0CTvIw-84" value="Cronologia prezzi" style="shape=ellipse;whiteSpace=wrap;html=1;fillColor=#e3f2fd;strokeColor=#1e88e5;" vertex="1" parent="1">
          <mxGeometry x="-646920" y="-404480" width="220" height="60" as="geometry" />
        </mxCell>
        <mxCell id="HIcIBQzLs1-KXI0CTvIw-85" value="Filtra per localizzazione" style="shape=ellipse;whiteSpace=wrap;html=1;fillColor=#fff3e0;strokeColor=#fb8c00;" vertex="1" parent="1">
          <mxGeometry x="-647080" y="-404380" width="220" height="60" as="geometry" />
        </mxCell>
        <mxCell id="HIcIBQzLs1-KXI0CTvIw-86" value="Login/Registrazione" style="shape=ellipse;whiteSpace=wrap;html=1;fillColor=#f5f5f5;strokeColor=#616161;" vertex="1" parent="1">
          <mxGeometry x="-646920" y="-404280" width="220" height="60" as="geometry" />
        </mxCell>
        <mxCell id="HIcIBQzLs1-KXI0CTvIw-87" value="Gestione watchlist" style="shape=ellipse;whiteSpace=wrap;html=1;fillColor=#e8f5e9;strokeColor=#43a047;" vertex="1" parent="1">
          <mxGeometry x="-646920" y="-404180" width="220" height="60" as="geometry" />
        </mxCell>
        <mxCell id="HIcIBQzLs1-KXI0CTvIw-88" value="Notifiche prezzi/offerte" style="shape=ellipse;whiteSpace=wrap;html=1;fillColor=#e8f5e9;strokeColor=#43a047;" vertex="1" parent="1">
          <mxGeometry x="-646920" y="-404080" width="220" height="60" as="geometry" />
        </mxCell>
        <mxCell id="HIcIBQzLs1-KXI0CTvIw-89" value="Inserisci prezzo osservato" style="shape=ellipse;whiteSpace=wrap;html=1;fillColor=#ffebee;strokeColor=#e53935;" vertex="1" parent="1">
          <mxGeometry x="-646920" y="-403980" width="220" height="60" as="geometry" />
        </mxCell>
        <mxCell id="HIcIBQzLs1-KXI0CTvIw-90" value="" style="edgeStyle=none;orthogonalLoop=1;jettySize=auto;html=1;rounded=0;entryX=0.198;entryY=0.872;entryDx=0;entryDy=0;entryPerimeter=0;endArrow=none;endFill=0;" edge="1" parent="1" target="HIcIBQzLs1-KXI0CTvIw-80">
          <mxGeometry width="80" relative="1" as="geometry">
            <mxPoint x="-647160" y="-404300" as="sourcePoint" />
            <mxPoint x="-647010" y="-404260" as="targetPoint" />
            <Array as="points" />
          </mxGeometry>
        </mxCell>
        <mxCell id="HIcIBQzLs1-KXI0CTvIw-91" value="" style="edgeStyle=none;orthogonalLoop=1;jettySize=auto;html=1;rounded=0;entryX=0;entryY=0.5;entryDx=0;entryDy=0;endArrow=none;endFill=0;" edge="1" parent="1" target="HIcIBQzLs1-KXI0CTvIw-83">
          <mxGeometry width="80" relative="1" as="geometry">
            <mxPoint x="-647160" y="-404370" as="sourcePoint" />
            <mxPoint x="-646696" y="-404390" as="targetPoint" />
            <Array as="points" />
          </mxGeometry>
        </mxCell>
        <mxCell id="HIcIBQzLs1-KXI0CTvIw-92" value="" style="edgeStyle=none;orthogonalLoop=1;jettySize=auto;html=1;rounded=0;entryX=0;entryY=0.5;entryDx=0;entryDy=0;endArrow=none;endFill=0;" edge="1" parent="1" target="HIcIBQzLs1-KXI0CTvIw-84">
          <mxGeometry width="80" relative="1" as="geometry">
            <mxPoint x="-647160" y="-404340" as="sourcePoint" />
            <mxPoint x="-646706" y="-404380" as="targetPoint" />
            <Array as="points" />
          </mxGeometry>
        </mxCell>
        <mxCell id="HIcIBQzLs1-KXI0CTvIw-93" value="" style="edgeStyle=none;orthogonalLoop=1;jettySize=auto;html=1;rounded=0;entryX=0;entryY=0.5;entryDx=0;entryDy=0;endArrow=none;endFill=0;" edge="1" parent="1" target="HIcIBQzLs1-KXI0CTvIw-85">
          <mxGeometry width="80" relative="1" as="geometry">
            <mxPoint x="-647160" y="-404330" as="sourcePoint" />
            <mxPoint x="-646696" y="-404340" as="targetPoint" />
            <Array as="points" />
          </mxGeometry>
        </mxCell>
        <mxCell id="HIcIBQzLs1-KXI0CTvIw-94" value="" style="edgeStyle=none;orthogonalLoop=1;jettySize=auto;html=1;rounded=0;endArrow=none;endFill=0;exitX=0.929;exitY=0.806;exitDx=0;exitDy=0;exitPerimeter=0;" edge="1" parent="1" source="HIcIBQzLs1-KXI0CTvIw-85">
          <mxGeometry width="80" relative="1" as="geometry">
            <mxPoint x="-646610" y="-404142" as="sourcePoint" />
            <mxPoint x="-646450" y="-404290" as="targetPoint" />
            <Array as="points" />
          </mxGeometry>
        </mxCell>
        <mxCell id="HIcIBQzLs1-KXI0CTvIw-95" value="" style="edgeStyle=none;orthogonalLoop=1;jettySize=auto;html=1;rounded=0;entryX=1;entryY=0.5;entryDx=0;entryDy=0;endArrow=none;endFill=0;" edge="1" parent="1" target="HIcIBQzLs1-KXI0CTvIw-80">
          <mxGeometry width="80" relative="1" as="geometry">
            <mxPoint x="-646450" y="-404310" as="sourcePoint" />
            <mxPoint x="-646026" y="-404500" as="targetPoint" />
            <Array as="points" />
          </mxGeometry>
        </mxCell>
        <mxCell id="HIcIBQzLs1-KXI0CTvIw-96" value="" style="edgeStyle=none;orthogonalLoop=1;jettySize=auto;html=1;rounded=0;entryX=1;entryY=0.5;entryDx=0;entryDy=0;endArrow=none;endFill=0;" edge="1" parent="1" target="HIcIBQzLs1-KXI0CTvIw-86">
          <mxGeometry width="80" relative="1" as="geometry">
            <mxPoint x="-646450" y="-404270" as="sourcePoint" />
            <mxPoint x="-646016" y="-404280" as="targetPoint" />
            <Array as="points" />
          </mxGeometry>
        </mxCell>
        <mxCell id="HIcIBQzLs1-KXI0CTvIw-97" value="" style="edgeStyle=none;orthogonalLoop=1;jettySize=auto;html=1;rounded=0;endArrow=none;endFill=0;exitX=1;exitY=0.5;exitDx=0;exitDy=0;" edge="1" parent="1" source="HIcIBQzLs1-KXI0CTvIw-87">
          <mxGeometry width="80" relative="1" as="geometry">
            <mxPoint x="-646520" y="-404182" as="sourcePoint" />
            <mxPoint x="-646450" y="-404250" as="targetPoint" />
            <Array as="points" />
          </mxGeometry>
        </mxCell>
        <mxCell id="HIcIBQzLs1-KXI0CTvIw-98" value="" style="edgeStyle=none;orthogonalLoop=1;jettySize=auto;html=1;rounded=0;entryX=1;entryY=0.5;entryDx=0;entryDy=0;endArrow=none;endFill=0;" edge="1" parent="1" target="HIcIBQzLs1-KXI0CTvIw-88">
          <mxGeometry width="80" relative="1" as="geometry">
            <mxPoint x="-646450" y="-404230" as="sourcePoint" />
            <mxPoint x="-646006" y="-404190" as="targetPoint" />
            <Array as="points" />
          </mxGeometry>
        </mxCell>
        <mxCell id="HIcIBQzLs1-KXI0CTvIw-99" value="" style="edgeStyle=none;orthogonalLoop=1;jettySize=auto;html=1;rounded=0;entryX=1;entryY=0.5;entryDx=0;entryDy=0;endArrow=none;endFill=0;" edge="1" parent="1" target="HIcIBQzLs1-KXI0CTvIw-89">
          <mxGeometry width="80" relative="1" as="geometry">
            <mxPoint x="-646450" y="-404210" as="sourcePoint" />
            <mxPoint x="-646036" y="-404110" as="targetPoint" />
            <Array as="points" />
          </mxGeometry>
        </mxCell>
        <mxCell id="HIcIBQzLs1-KXI0CTvIw-100" value="" style="edgeStyle=none;orthogonalLoop=1;jettySize=auto;html=1;rounded=0;endArrow=none;endFill=0;exitX=1;exitY=0.5;exitDx=0;exitDy=0;" edge="1" parent="1" source="HIcIBQzLs1-KXI0CTvIw-84">
          <mxGeometry width="80" relative="1" as="geometry">
            <mxPoint x="-646480" y="-404392" as="sourcePoint" />
            <mxPoint x="-646450" y="-404340" as="targetPoint" />
            <Array as="points" />
          </mxGeometry>
        </mxCell>
        <mxCell id="HIcIBQzLs1-KXI0CTvIw-101" value="" style="edgeStyle=none;orthogonalLoop=1;jettySize=auto;html=1;rounded=0;entryX=1;entryY=0.5;entryDx=0;entryDy=0;endArrow=none;endFill=0;" edge="1" parent="1" target="HIcIBQzLs1-KXI0CTvIw-83">
          <mxGeometry width="80" relative="1" as="geometry">
            <mxPoint x="-646450" y="-404360" as="sourcePoint" />
            <mxPoint x="-645986" y="-404400" as="targetPoint" />
            <Array as="points" />
          </mxGeometry>
        </mxCell>
        <mxCell id="HIcIBQzLs1-KXI0CTvIw-102" value="" style="rounded=0;whiteSpace=wrap;html=1;fillColor=none;" vertex="1" parent="1">
          <mxGeometry x="-647100" y="-404620" width="590" height="740" as="geometry" />
        </mxCell>
        <mxCell id="HIcIBQzLs1-KXI0CTvIw-103" value="Visitatore" style="shape=umlActor;verticalLabelPosition=bottom;verticalAlign=top;" vertex="1" parent="1">
          <mxGeometry x="-899700" y="-562200" width="60" height="120" as="geometry" />
        </mxCell>
        <mxCell id="HIcIBQzLs1-KXI0CTvIw-104" value="Utente registrato" style="shape=umlActor;verticalLabelPosition=bottom;verticalAlign=top;" vertex="1" parent="1">
          <mxGeometry x="-898900" y="-562180" width="60" height="120" as="geometry" />
        </mxCell>
        <mxCell id="HIcIBQzLs1-KXI0CTvIw-105" value="" style="edgeStyle=orthogonalEdgeStyle;rounded=0;orthogonalLoop=1;jettySize=auto;html=1;dashed=1;endArrow=block;endFill=0;strokeWidth=3;entryX=1;entryY=0.5;entryDx=0;entryDy=0;" edge="1" parent="1" source="HIcIBQzLs1-KXI0CTvIw-107" target="HIcIBQzLs1-KXI0CTvIw-112">
          <mxGeometry relative="1" as="geometry" />
        </mxCell>
        <mxCell id="HIcIBQzLs1-KXI0CTvIw-106" value="&lt;font style=&quot;font-size: 13px;&quot;&gt;&lt;b&gt;«include»&lt;/b&gt;&lt;/font&gt;" style="edgeLabel;html=1;align=center;verticalAlign=middle;resizable=0;points=[];" vertex="1" connectable="0" parent="HIcIBQzLs1-KXI0CTvIw-105">
          <mxGeometry x="-0.097" y="-3" relative="1" as="geometry">
            <mxPoint x="-31" y="-17" as="offset" />
          </mxGeometry>
        </mxCell>
        <mxCell id="HIcIBQzLs1-KXI0CTvIw-107" value="Ricerca prezzo minimo" style="shape=ellipse;whiteSpace=wrap;html=1;fillColor=#e3f2fd;strokeColor=#1e88e5;" vertex="1" parent="1">
          <mxGeometry x="-899220" y="-562200" width="220" height="60" as="geometry" />
        </mxCell>
        <mxCell id="HIcIBQzLs1-KXI0CTvIw-108" value="" style="edgeStyle=orthogonalEdgeStyle;rounded=0;orthogonalLoop=1;jettySize=auto;html=1;strokeWidth=2;dashed=1;endArrow=block;endFill=0;" edge="1" parent="1" source="HIcIBQzLs1-KXI0CTvIw-110" target="HIcIBQzLs1-KXI0CTvIw-111">
          <mxGeometry relative="1" as="geometry" />
        </mxCell>
        <mxCell id="HIcIBQzLs1-KXI0CTvIw-109" value="&lt;font style=&quot;font-size: 13px;&quot;&gt;&lt;b&gt;&amp;lt;&amp;lt;extend&amp;gt;&amp;gt;&lt;/b&gt;&lt;/font&gt;" style="edgeLabel;html=1;align=center;verticalAlign=middle;resizable=0;points=[];" vertex="1" connectable="0" parent="HIcIBQzLs1-KXI0CTvIw-108">
          <mxGeometry x="-0.1833" y="2" relative="1" as="geometry">
            <mxPoint x="-42" y="4" as="offset" />
          </mxGeometry>
        </mxCell>
        <mxCell id="HIcIBQzLs1-KXI0CTvIw-110" value="Elenco punti vendita" style="shape=ellipse;whiteSpace=wrap;html=1;fillColor=#e3f2fd;strokeColor=#1e88e5;" vertex="1" parent="1">
          <mxGeometry x="-899390" y="-562400" width="220" height="60" as="geometry" />
        </mxCell>
        <mxCell id="HIcIBQzLs1-KXI0CTvIw-111" value="Cronologia prezzi" style="shape=ellipse;whiteSpace=wrap;html=1;fillColor=#e3f2fd;strokeColor=#1e88e5;" vertex="1" parent="1">
          <mxGeometry x="-899390" y="-562300" width="220" height="60" as="geometry" />
        </mxCell>
        <mxCell id="HIcIBQzLs1-KXI0CTvIw-112" value="Filtra per localizzazione" style="shape=ellipse;whiteSpace=wrap;html=1;fillColor=#fff3e0;strokeColor=#fb8c00;" vertex="1" parent="1">
          <mxGeometry x="-899550" y="-562200" width="220" height="60" as="geometry" />
        </mxCell>
        <mxCell id="HIcIBQzLs1-KXI0CTvIw-113" value="Login/Registrazione" style="shape=ellipse;whiteSpace=wrap;html=1;fillColor=#f5f5f5;strokeColor=#616161;" vertex="1" parent="1">
          <mxGeometry x="-899390" y="-562100" width="220" height="60" as="geometry" />
        </mxCell>
        <mxCell id="HIcIBQzLs1-KXI0CTvIw-114" value="Gestione watchlist" style="shape=ellipse;whiteSpace=wrap;html=1;fillColor=#e8f5e9;strokeColor=#43a047;" vertex="1" parent="1">
          <mxGeometry x="-899390" y="-562000" width="220" height="60" as="geometry" />
        </mxCell>
        <mxCell id="HIcIBQzLs1-KXI0CTvIw-115" value="Notifiche prezzi/offerte" style="shape=ellipse;whiteSpace=wrap;html=1;fillColor=#e8f5e9;strokeColor=#43a047;" vertex="1" parent="1">
          <mxGeometry x="-899390" y="-561900" width="220" height="60" as="geometry" />
        </mxCell>
        <mxCell id="HIcIBQzLs1-KXI0CTvIw-116" value="Inserisci prezzo osservato" style="shape=ellipse;whiteSpace=wrap;html=1;fillColor=#ffebee;strokeColor=#e53935;" vertex="1" parent="1">
          <mxGeometry x="-899390" y="-561800" width="220" height="60" as="geometry" />
        </mxCell>
        <mxCell id="HIcIBQzLs1-KXI0CTvIw-117" value="" style="edgeStyle=none;orthogonalLoop=1;jettySize=auto;html=1;rounded=0;entryX=0.198;entryY=0.872;entryDx=0;entryDy=0;entryPerimeter=0;endArrow=none;endFill=0;" edge="1" parent="1" target="HIcIBQzLs1-KXI0CTvIw-107">
          <mxGeometry width="80" relative="1" as="geometry">
            <mxPoint x="-899630" y="-562120" as="sourcePoint" />
            <mxPoint x="-899480" y="-562080" as="targetPoint" />
            <Array as="points" />
          </mxGeometry>
        </mxCell>
        <mxCell id="HIcIBQzLs1-KXI0CTvIw-118" value="" style="edgeStyle=none;orthogonalLoop=1;jettySize=auto;html=1;rounded=0;entryX=0;entryY=0.5;entryDx=0;entryDy=0;endArrow=none;endFill=0;" edge="1" parent="1" target="HIcIBQzLs1-KXI0CTvIw-110">
          <mxGeometry width="80" relative="1" as="geometry">
            <mxPoint x="-899630" y="-562190" as="sourcePoint" />
            <mxPoint x="-899166" y="-562210" as="targetPoint" />
            <Array as="points" />
          </mxGeometry>
        </mxCell>
        <mxCell id="HIcIBQzLs1-KXI0CTvIw-119" value="" style="edgeStyle=none;orthogonalLoop=1;jettySize=auto;html=1;rounded=0;entryX=0;entryY=0.5;entryDx=0;entryDy=0;endArrow=none;endFill=0;" edge="1" parent="1" target="HIcIBQzLs1-KXI0CTvIw-111">
          <mxGeometry width="80" relative="1" as="geometry">
            <mxPoint x="-899630" y="-562160" as="sourcePoint" />
            <mxPoint x="-899176" y="-562200" as="targetPoint" />
            <Array as="points" />
          </mxGeometry>
        </mxCell>
        <mxCell id="HIcIBQzLs1-KXI0CTvIw-120" value="" style="edgeStyle=none;orthogonalLoop=1;jettySize=auto;html=1;rounded=0;entryX=0;entryY=0.5;entryDx=0;entryDy=0;endArrow=none;endFill=0;" edge="1" parent="1" target="HIcIBQzLs1-KXI0CTvIw-112">
          <mxGeometry width="80" relative="1" as="geometry">
            <mxPoint x="-899630" y="-562150" as="sourcePoint" />
            <mxPoint x="-899166" y="-562160" as="targetPoint" />
            <Array as="points" />
          </mxGeometry>
        </mxCell>
        <mxCell id="HIcIBQzLs1-KXI0CTvIw-121" value="" style="edgeStyle=none;orthogonalLoop=1;jettySize=auto;html=1;rounded=0;endArrow=none;endFill=0;exitX=0.929;exitY=0.806;exitDx=0;exitDy=0;exitPerimeter=0;" edge="1" parent="1" source="HIcIBQzLs1-KXI0CTvIw-112">
          <mxGeometry width="80" relative="1" as="geometry">
            <mxPoint x="-899080" y="-561962" as="sourcePoint" />
            <mxPoint x="-898920" y="-562110" as="targetPoint" />
            <Array as="points" />
          </mxGeometry>
        </mxCell>
        <mxCell id="HIcIBQzLs1-KXI0CTvIw-122" value="" style="edgeStyle=none;orthogonalLoop=1;jettySize=auto;html=1;rounded=0;entryX=1;entryY=0.5;entryDx=0;entryDy=0;endArrow=none;endFill=0;" edge="1" parent="1" target="HIcIBQzLs1-KXI0CTvIw-107">
          <mxGeometry width="80" relative="1" as="geometry">
            <mxPoint x="-898920" y="-562130" as="sourcePoint" />
            <mxPoint x="-898496" y="-562320" as="targetPoint" />
            <Array as="points" />
          </mxGeometry>
        </mxCell>
        <mxCell id="HIcIBQzLs1-KXI0CTvIw-123" value="" style="edgeStyle=none;orthogonalLoop=1;jettySize=auto;html=1;rounded=0;entryX=1;entryY=0.5;entryDx=0;entryDy=0;endArrow=none;endFill=0;" edge="1" parent="1" target="HIcIBQzLs1-KXI0CTvIw-113">
          <mxGeometry width="80" relative="1" as="geometry">
            <mxPoint x="-898920" y="-562090" as="sourcePoint" />
            <mxPoint x="-898486" y="-562100" as="targetPoint" />
            <Array as="points" />
          </mxGeometry>
        </mxCell>
        <mxCell id="HIcIBQzLs1-KXI0CTvIw-124" value="" style="edgeStyle=none;orthogonalLoop=1;jettySize=auto;html=1;rounded=0;endArrow=none;endFill=0;exitX=1;exitY=0.5;exitDx=0;exitDy=0;" edge="1" parent="1" source="HIcIBQzLs1-KXI0CTvIw-114">
          <mxGeometry width="80" relative="1" as="geometry">
            <mxPoint x="-898990" y="-562002" as="sourcePoint" />
            <mxPoint x="-898920" y="-562070" as="targetPoint" />
            <Array as="points" />
          </mxGeometry>
        </mxCell>
        <mxCell id="HIcIBQzLs1-KXI0CTvIw-125" value="" style="edgeStyle=none;orthogonalLoop=1;jettySize=auto;html=1;rounded=0;entryX=1;entryY=0.5;entryDx=0;entryDy=0;endArrow=none;endFill=0;" edge="1" parent="1" target="HIcIBQzLs1-KXI0CTvIw-115">
          <mxGeometry width="80" relative="1" as="geometry">
            <mxPoint x="-898920" y="-562050" as="sourcePoint" />
            <mxPoint x="-898476" y="-562010" as="targetPoint" />
            <Array as="points" />
          </mxGeometry>
        </mxCell>
        <mxCell id="HIcIBQzLs1-KXI0CTvIw-126" value="" style="edgeStyle=none;orthogonalLoop=1;jettySize=auto;html=1;rounded=0;entryX=1;entryY=0.5;entryDx=0;entryDy=0;endArrow=none;endFill=0;" edge="1" parent="1" target="HIcIBQzLs1-KXI0CTvIw-116">
          <mxGeometry width="80" relative="1" as="geometry">
            <mxPoint x="-898920" y="-562030" as="sourcePoint" />
            <mxPoint x="-898506" y="-561930" as="targetPoint" />
            <Array as="points" />
          </mxGeometry>
        </mxCell>
        <mxCell id="HIcIBQzLs1-KXI0CTvIw-127" value="" style="edgeStyle=none;orthogonalLoop=1;jettySize=auto;html=1;rounded=0;endArrow=none;endFill=0;exitX=1;exitY=0.5;exitDx=0;exitDy=0;" edge="1" parent="1" source="HIcIBQzLs1-KXI0CTvIw-111">
          <mxGeometry width="80" relative="1" as="geometry">
            <mxPoint x="-898950" y="-562212" as="sourcePoint" />
            <mxPoint x="-898920" y="-562160" as="targetPoint" />
            <Array as="points" />
          </mxGeometry>
        </mxCell>
        <mxCell id="HIcIBQzLs1-KXI0CTvIw-128" value="" style="edgeStyle=none;orthogonalLoop=1;jettySize=auto;html=1;rounded=0;entryX=1;entryY=0.5;entryDx=0;entryDy=0;endArrow=none;endFill=0;" edge="1" parent="1" target="HIcIBQzLs1-KXI0CTvIw-110">
          <mxGeometry width="80" relative="1" as="geometry">
            <mxPoint x="-898920" y="-562180" as="sourcePoint" />
            <mxPoint x="-898456" y="-562220" as="targetPoint" />
            <Array as="points" />
          </mxGeometry>
        </mxCell>
        <mxCell id="HIcIBQzLs1-KXI0CTvIw-129" value="" style="rounded=0;whiteSpace=wrap;html=1;fillColor=none;" vertex="1" parent="1">
          <mxGeometry x="-899570" y="-562440" width="590" height="740" as="geometry" />
        </mxCell>
      </root>
    </mxGraphModel>
  </diagram>
</mxfile>
